<svg class="{{ class_attr }}" viewBox="0 0 24 24" fill="currentColor" {{ accessibility_attrs }}>
  <!-- Left page outline -->
  <path fill-rule="evenodd" d="M12 6c-1.5-.5-3.5-1-5-1-1 0-2 .2-3 .5V18c1-.3 2-.5 3-.5 1.5 0 3.5.5 5 1V6zm-2 2H6v1.5h4V8zm0 3H6v1.5h4V11zm0 3H6v1.5h4V14z"/>
  <!-- Right page outline -->
  <path fill-rule="evenodd" d="M12 6c1.5-.5 3.5-1 5-1 1 0 2 .2 3 .5V18c-1-.3-2-.5-3-.5-1.5 0-3.5.5-5 1V6zm2 2h4v1.5h-4V8zm0 3h4v1.5h-4V11zm0 3h4v1.5h-4V14z"/>
  <!-- Center spine -->
  <rect x="11" y="5" width="2" height="14" rx="0.5"/>
</svg>