<svg class="{{ class_attr }}" viewBox="0 0 24 24" fill="currentColor" {{ accessibility_attrs }}>
  <!-- Globe outline -->
  <path fill-rule="evenodd" d="M12 2C6.48 2 2 6.48 2 12s4.48 10 10 10 10-4.48 10-10S17.52 2 12 2zm0 18c-4.41 0-8-3.59-8-8s3.59-8 8-8 8 3.59 8 8-3.59 8-8 8z"/>
  <!-- Vertical meridian -->
  <path fill-rule="evenodd" d="M12 4c-1.93 0-3.5 3.58-3.5 8s1.57 8 3.5 8 3.5-3.58 3.5-8-1.57-8-3.5-8zm0 14c-.83 0-1.5-2.69-1.5-6s.67-6 1.5-6 1.5 2.69 1.5 6-.67 6-1.5 6z"/>
  <!-- Horizontal line (equator) -->
  <rect x="4" y="11" width="16" height="2" rx="0.5"/>
</svg>