<svg class="{{ class_attr }}" viewBox="0 0 24 24" fill="currentColor" {{ accessibility_attrs }}>
  <!-- Keyboard outline -->
  <path fill-rule="evenodd" d="M20 5H4c-1.1 0-2 .9-2 2v10c0 1.1.9 2 2 2h16c1.1 0 2-.9 2-2V7c0-1.1-.9-2-2-2zm0 12H4V7h16v10z"/>
  <!-- Top row keys -->
  <rect x="5" y="8" width="2" height="2"/>
  <rect x="8" y="8" width="2" height="2"/>
  <rect x="11" y="8" width="2" height="2"/>
  <rect x="14" y="8" width="2" height="2"/>
  <rect x="17" y="8" width="2" height="2"/>
  <!-- Middle row keys -->
  <rect x="5" y="11" width="2" height="2"/>
  <rect x="8" y="11" width="2" height="2"/>
  <rect x="11" y="11" width="2" height="2"/>
  <rect x="14" y="11" width="2" height="2"/>
  <rect x="17" y="11" width="2" height="2"/>
  <!-- Space bar -->
  <rect x="8" y="14" width="8" height="2"/>
</svg>
